<svg xmlns="http://www.w3.org/2000/svg" xmlns:xlink="http://www.w3.org/1999/xlink" viewBox="0 0 63.75 85" fill="#fff" fill-rule="evenodd" stroke="#000" stroke-linecap="round" stroke-linejoin="round"><use xlink:href="#A" x="1.875" y="2.5"/><symbol id="A" overflow="visible"><g stroke="none"><path d="M39.399 28.895l-8.317 7.451-7.718-14.987 3.994-8.619c1.011-1.728 2.66-1.731 3.671 0l8.371 16.155z" fill="#ffa000"/><path d="M31.082 36.346L.001 64.183l23.363-42.824z" fill="#f57f17"/><path d="M48.496 17.506c1.486-1.375 3.022-.906 3.413 1.042L60 63.81 33.181 79.284c-.938.499-3.424.715-3.424.715s-2.268-.261-3.133-.723L0 64.181l48.496-46.675z" fill="#ffca28"/><path d="M23.364 21.359L.001 64.183 10.407 1.594c.383-1.95 1.536-2.137 2.565-.417l10.392 20.181z" fill="#ffa000"/></g></symbol></svg>