<svg xmlns="http://www.w3.org/2000/svg" xmlns:xlink="http://www.w3.org/1999/xlink" viewBox="0 0 59 66" fill="#fff" fill-rule="evenodd" stroke="#000" stroke-linecap="round" stroke-linejoin="round"><use xlink:href="#A" x="1" y="1"/><symbol id="A" overflow="visible"><g stroke="none" fill-rule="nonzero"><path d="M5.136 57.602L0 0h56.432l-5.14 57.594-23.112 6.404z" fill="#e44d26"/><path d="M46.89 53.926L51.284 4.71H28.216v54.394z" fill="#f16529"/><path d="M28.192 11.774H10.5l1.906 21.364h15.81v-7.064h-9.348l-.646-7.234h9.994v-7.066zm.024 32.624l-.03.008-7.868-2.124-.5-5.634h-7.096l.99 11.092 14.472 4 .032-.01z" fill="#ebebeb"/><path d="M28.192 33.138h8.7l-.8 9.16-7.88 2.126v7.35l14.484-4.014 1.94-21.69h-16.42zM45.72 13.67l.168-1.896h-17.7v7.064h17.064l.14-1.588z"/></g></symbol></svg>