<svg xmlns="http://www.w3.org/2000/svg" xmlns:xlink="http://www.w3.org/1999/xlink" viewBox="0 0 59.145 60.79" fill="#fff" fill-rule="evenodd" stroke="#000" stroke-linecap="round" stroke-linejoin="round"><use xlink:href="#A" x=".895" y=".895"/><symbol id="A" overflow="visible"><g fill-rule="nonzero"><path d="M43.734 43.991c.407-3.392.285-3.888 2.81-3.34l.643.057c1.942.087 4.482-.312 6-1.005 3.212-1.49 5.118-3.98 1.95-3.325-7.25 1.49-7.75-.958-7.75-.958 7.633-11.325 10.825-25.7 8.068-29.217-7.51-9.6-20.513-5.06-20.73-4.94l-.07.012c-1.425-.3-3-.5-4.825-.5-3.27-.05-5.75.857-7.635 2.285 0 0-23.192-9.555-22.115 12.018.23 4.59 6.575 34.75 14.15 25.625 2.775-3.335 5.45-6.15 5.45-6.15 1.325.883 2.918 1.333 4.585 1.17l.13-.11c-.039.432-.021.867.052 1.295-1.95 2.18-1.375 2.563-5.25 3.365-3.945.813-1.625 2.26-.115 2.64 1.835.46 6.08 1.11 8.95-2.905l-.115.458c.765.612.713 4.4.825 7.105s.29 5.233.843 6.72 1.2 5.325 6.325 4.25c4.282-.917 7.558-2.24 7.858-14.5" fill="#000" stroke-width="5.373"/><path d="M55.114 36.401c-7.25 1.49-7.75-.957-7.75-.957 7.633-11.325 10.825-25.7 8.07-29.217-7.507-9.575-20.513-5.057-20.732-4.94l-.07.013a25.78 25.78 0 0 0-4.822-.503c-3.27-.05-5.75.858-7.635 2.285 0 0-23.195-9.555-22.115 12.017.23 4.59 6.575 34.75 14.15 25.625 2.817-3.355 5.467-6.173 5.467-6.173 1.325.883 2.918 1.333 4.585 1.17l.13-.11c-.038.432-.021.867.053 1.295-1.95 2.18-1.375 2.563-5.25 3.365-3.945.813-1.625 2.26-.115 2.64 1.835.46 6.08 1.11 8.95-2.905l-.115.457c.765.613 1.3 3.983 1.21 7.038s-.15 5.15.45 6.79 1.2 5.325 6.325 4.25c4.282-.917 6.5-3.3 6.813-7.265.22-2.82.715-2.405.75-4.925l.4-1.195c.457-3.825.075-5.057 2.712-4.483l.642.058c1.943.087 4.485-.312 6-1.005 3.212-1.49 5.118-3.98 1.95-3.325z" stroke="none" fill="#336791"/></g><g stroke="#fff"><g fill="none" stroke-width="1.79"><path d="M28.312 38.569c-.2 7.115.05 14.28.745 16s2.188 5.125 7.315 4.03c4.282-.917 5.843-2.695 6.517-6.617l1.583-12.542M22.167 2.901S-1.043-6.589.037 14.984c.23 4.59 6.575 34.75 14.15 25.625 2.765-3.333 5.265-5.94 5.265-5.94m15.25-33.5c-.8.25 12.91-5.012 20.705 4.945 2.75 3.517-.437 17.893-8.07 29.217"/><path d="M47.339 35.326s.5 2.45 7.75.955c3.168-.655 1.26 1.835-1.95 3.325-2.635 1.25-8.545 1.538-8.642-.15-.25-4.362 3.11-3.038 2.867-4.13-.22-.985-1.75-1.95-2.715-4.36-.867-2.1-11.9-18.25 3.06-15.833.55-.112-3.9-14.25-17.9-14.455S16.277 17.891 16.277 17.891m8.118 18.931c-1.95 2.18-1.375 2.563-5.25 3.365-3.945.813-1.625 2.26-.115 2.64 1.835.46 6.08 1.11 8.95-2.908.875-1.25-.005-3.175-1.205-3.67-.58-.24-1.355-.54-2.35.575z"/><path d="M24.267 36.784c-.2-1.282.42-2.805 1.083-4.59.995-2.675 3.29-5.35 1.455-13.843-1.367-6.325-10.55-1.317-10.55-.46s.415 4.35-.15 8.413c-.742 5.305 3.375 9.79 8.115 9.333"/></g><g fill-rule="nonzero"><path d="M22.081 17.764c-.042.292.538 1.075 1.29 1.18s1.395-.505 1.438-.8-.538-.615-1.29-.72-1.4.05-1.437.34z" stroke-width=".598"/><path d="M44.991 17.166c.04.292-.538 1.075-1.29 1.18s-1.4-.505-1.437-.8.538-.615 1.29-.72 1.4.05 1.438.34z" stroke-width=".298"/></g><path d="M47.682 15.139c.125 2.3-.495 3.863-.575 6.31-.115 3.555 1.695 7.625-1.032 11.7" fill="none" stroke-width="1.79"/></g></symbol></svg>