<?xml version="1.0" encoding="UTF-8" standalone="no"?>
<svg
   width="26"
   height="24"
   viewBox="0 0 26 24"
   fill="none"
   stroke="currentColor"
   stroke-width="2"
   stroke-linecap="round"
   stroke-linejoin="round"
   class="feather feather-coffee"
   version="1.1"
   id="svg12"
   sodipodi:docname="coffee.svg"
   inkscape:version="1.2 (dc2aeda, 2022-05-15)"
   xmlns:inkscape="http://www.inkscape.org/namespaces/inkscape"
   xmlns:sodipodi="http://sodipodi.sourceforge.net/DTD/sodipodi-0.dtd"
   xmlns:xlink="http://www.w3.org/1999/xlink"
   xmlns="http://www.w3.org/2000/svg"
   xmlns:svg="http://www.w3.org/2000/svg">
  <defs
     id="defs16">
    <linearGradient
       inkscape:collect="always"
       id="linearGradient1336">
      <stop
         style="stop-color:#ffa400;stop-opacity:1;"
         offset="0.32383955"
         id="stop1332" />
      <stop
         style="stop-color:#ff5d00;stop-opacity:1;"
         offset="1"
         id="stop1334" />
    </linearGradient>
    <linearGradient
       inkscape:collect="always"
       id="linearGradient1025">
      <stop
         style="stop-color:#ffa400;stop-opacity:1;"
         offset="0.8495881"
         id="stop1021" />
      <stop
         style="stop-color:#ff8200;stop-opacity:1;"
         offset="1"
         id="stop1023" />
    </linearGradient>
    <linearGradient
       inkscape:collect="always"
       xlink:href="#linearGradient1025"
       id="linearGradient1027"
       x1="0.51935279"
       y1="16.198322"
       x2="18.240894"
       y2="16.198322"
       gradientUnits="userSpaceOnUse"
       gradientTransform="translate(2.5813488,0.296658)" />
    <linearGradient
       inkscape:collect="always"
       xlink:href="#linearGradient1336"
       id="linearGradient1338"
       x1="30.90547"
       y1="10.028321"
       x2="36.655521"
       y2="10.028321"
       gradientUnits="userSpaceOnUse"
       gradientTransform="translate(-10.70552,4.832857)" />
  </defs>
  <sodipodi:namedview
     id="namedview14"
     pagecolor="#505050"
     bordercolor="#eeeeee"
     borderopacity="1"
     inkscape:showpageshadow="0"
     inkscape:pageopacity="0"
     inkscape:pagecheckerboard="0"
     inkscape:deskcolor="#505050"
     showgrid="false"
     inkscape:zoom="11.950417"
     inkscape:cx="27.195704"
     inkscape:cy="19.162511"
     inkscape:window-width="1356"
     inkscape:window-height="728"
     inkscape:window-x="5"
     inkscape:window-y="35"
     inkscape:window-maximized="1"
     inkscape:current-layer="svg12" />
  <path
     id="path2"
     style="fill:url(#linearGradient1338);fill-opacity:1;stroke:#000000;stroke-width:0.5;stroke-dasharray:none;stroke-opacity:1"
     d="m 20.399949,10.39731 v 8.927735 h 1.070312 c 5.706319,8.9e-4 5.706319,-8.926844 0,-8.927735 z m 0.109375,1.451172 h 0.708984 c 4.128364,0 3.916855,6.154297 0,6.154297 h -0.708984 z"
     sodipodi:nodetypes="ccccccsscc" />
  <path
     d="M 3.4007016,9.2399615 H 20.522243 V 19.285373 A 4.2803852,4.4646272 0 0 1 16.241857,23.75 H 7.6810868 A 4.2803852,4.4646272 0 0 1 3.4007016,19.285373 Z"
     id="path4"
     style="fill:url(#linearGradient1027);fill-opacity:1;stroke:#000000;stroke-width:0.5;stroke-dasharray:none;stroke-opacity:1" />
  <g
     aria-label="+120"
     transform="matrix(1.1776554,0,0,1.2070317,-0.073543,-0.61756033)"
     id="text920"
     style="font-weight:800;font-size:7.99541px;line-height:1.25;font-family:'JetBrains Mono';-inkscape-font-specification:'JetBrains Mono, Ultra-Bold';fill:#00abff;fill-opacity:1;stroke:none;stroke-width:0.251624;stroke-dasharray:none">
    <path
       d="M 1.9732056,5.834464 V 4.4752443 H 0.6139859 V 3.3558869 H 1.9732056 V 1.9966672 H 3.1725171 V 3.3558869 H 4.5317368 V 4.4752443 H 3.1725171 V 5.834464 Z"
       id="path1029"
       style="fill:#00abff;fill-opacity:1;stroke:#000000;stroke-width:0.251624;stroke-dasharray:none;stroke-opacity:1" />
    <path
       d="M 5.6111047,6.5540509 V 5.5146476 H 7.0822602 V 1.8127728 L 5.5951139,2.9161394 V 1.6768508 L 6.962329,0.71740165 H 8.2815717 V 5.5146476 h 1.1673298 v 1.0394033 z"
       id="path1031"
       style="fill:#00abff;fill-opacity:1;stroke:#000000;stroke-width:0.251624;stroke-dasharray:none;stroke-opacity:1" />
    <path
       d="M 10.328384,6.5540509 V 5.4986568 l 1.854935,-1.8629305 q 0.327812,-0.3278118 0.48772,-0.5916604 0.167904,-0.2718439 0.167904,-0.5916603 0,-0.351798 -0.19189,-0.5436879 -0.183894,-0.1918898 -0.511706,-0.1918898 -0.359794,0 -0.567674,0.2158761 -0.199885,0.2078806 -0.199885,0.5836649 h -1.199312 q 0,-0.5756695 0.239862,-0.9914308 0.247858,-0.4237568 0.695601,-0.65562366 0.447743,-0.23186689 1.055394,-0.23186689 0.567674,0 0.983436,0.21587607 0.423756,0.20788068 0.655623,0.58366488 0.239862,0.3757843 0.239862,0.8874906 0,0.5676741 -0.279839,1.0873757 -0.279839,0.5117062 -0.895486,1.0873758 l -1.039403,0.97544 h 2.278692 v 1.0793803 z"
       id="path1033"
       style="fill:#00abff;fill-opacity:1;stroke:#000000;stroke-width:0.251624;stroke-dasharray:none;stroke-opacity:1" />
    <path
       d="m 16.964562,6.634005 q -0.583665,0 -1.015417,-0.215876 Q 15.517393,6.1942575 15.277531,5.8024824 15.045664,5.4027119 15.045664,4.8750148 V 2.3964377 q 0,-0.527697 0.231867,-0.9194721 0.239862,-0.3997705 0.671614,-0.61564657 0.431752,-0.22387148 1.015417,-0.22387148 0.59166,0 1.015417,0.22387148 0.431752,0.21587607 0.663619,0.61564657 0.239862,0.3917751 0.239862,0.9194721 v 2.4785771 q 0,0.5276971 -0.239862,0.9274676 -0.231867,0.3917751 -0.663619,0.6156466 -0.423757,0.215876 -1.015417,0.215876 z m 0,-1.0394033 q 0.375784,0 0.583665,-0.1918898 0.215876,-0.1918899 0.215876,-0.5276971 V 2.3964377 q 0,-0.3358072 -0.215876,-0.527697 -0.207881,-0.1918899 -0.583665,-0.1918899 -0.375784,0 -0.59166,0.1918899 -0.207881,0.1918898 -0.207881,0.527697 v 2.4785771 q 0,0.3358072 0.215876,0.5276971 0.215876,0.1918898 0.583665,0.1918898 z m 0,-1.4071921 q -0.247858,0 -0.407766,-0.1599082 -0.151913,-0.1599082 -0.151913,-0.4157613 0,-0.2558532 0.151913,-0.407766 0.159908,-0.1519127 0.407766,-0.1519127 0.255853,0 0.407766,0.1519127 0.151913,0.1519128 0.151913,0.407766 0,0.2558531 -0.151913,0.4157613 -0.151913,0.1599082 -0.407766,0.1599082 z"
       id="path1035"
       style="fill:#00abff;fill-opacity:1;stroke:#000000;stroke-width:0.251624;stroke-dasharray:none;stroke-opacity:1" />
  </g>
</svg>
