<?xml version="1.0" encoding="UTF-8" standalone="no"?>
<svg
   fill="none"
   viewBox="0 0 64 24"
   stroke-width="1.5"
   stroke="currentColor"
   class="w-6 h-6"
   version="1.1"
   id="svg6"
   sodipodi:docname="hundred.svg"
   inkscape:version="1.2.1 (9c6d41e410, 2022-07-14)"
   width="64"
   height="24"
   xmlns:inkscape="http://www.inkscape.org/namespaces/inkscape"
   xmlns:sodipodi="http://sodipodi.sourceforge.net/DTD/sodipodi-0.dtd"
   xmlns:xlink="http://www.w3.org/1999/xlink"
   xmlns="http://www.w3.org/2000/svg"
   xmlns:svg="http://www.w3.org/2000/svg">
  <defs
     id="defs10">
    <linearGradient
       inkscape:collect="always"
       id="linearGradient1622">
      <stop
         style="stop-color:#f19000;stop-opacity:1;"
         offset="0"
         id="stop1620" />
      <stop
         style="stop-color:#ffa200;stop-opacity:1;"
         offset="0.75449109"
         id="stop1618" />
    </linearGradient>
    <linearGradient
       inkscape:collect="always"
       id="linearGradient886">
      <stop
         style="stop-color:#ffa200;stop-opacity:1;"
         offset="0.24251492"
         id="stop882" />
      <stop
         style="stop-color:#f18400;stop-opacity:1;"
         offset="1"
         id="stop884" />
    </linearGradient>
    <linearGradient
       inkscape:collect="always"
       xlink:href="#linearGradient1622"
       id="linearGradient874"
       x1="1.9166522"
       y1="12"
       x2="14.960898"
       y2="12"
       gradientUnits="userSpaceOnUse" />
    <linearGradient
       inkscape:collect="always"
       xlink:href="#linearGradient886"
       id="linearGradient880"
       x1="45.279496"
       y1="12"
       x2="62.08331"
       y2="12"
       gradientUnits="userSpaceOnUse" />
  </defs>
  <sodipodi:namedview
     id="namedview8"
     pagecolor="#505050"
     bordercolor="#eeeeee"
     borderopacity="1"
     inkscape:showpageshadow="0"
     inkscape:pageopacity="0"
     inkscape:pagecheckerboard="0"
     inkscape:deskcolor="#505050"
     showgrid="false"
     inkscape:zoom="8"
     inkscape:cx="42.8125"
     inkscape:cy="15.5"
     inkscape:window-width="1366"
     inkscape:window-height="697"
     inkscape:window-x="-8"
     inkscape:window-y="-8"
     inkscape:window-maximized="1"
     inkscape:current-layer="text896" />
  <g
     aria-label="100%"
     id="text896"
     style="font-size:25.403px;line-height:1.25;fill:#ffa000;stroke:#000000;stroke-width:0.951807">
    <path
       d="m 2.3674582,21.272095 v -3.30239 h 4.674152 V 6.2081158 l -4.724958,3.505614 v -3.937465 l 4.343913,-3.04836 H 10.85206 V 17.969705 h 3.708838 v 3.30239 z"
       style="font-weight:800;font-family:'JetBrains Mono';-inkscape-font-specification:'JetBrains Mono, Ultra-Bold';stroke-linecap:round;stroke-linejoin:round;fill:url(#linearGradient874);fill-opacity:1;stroke-width:0.6;stroke-dasharray:none"
       id="path267" />
    <path
       d="m 23.197879,21.526125 q -1.854419,0 -3.226181,-0.685881 -1.371762,-0.711284 -2.133852,-1.956031 -0.736687,-1.27015 -0.736687,-2.946748 V 8.0625348 q 0,-1.676598 0.736687,-2.921345 0.76209,-1.27015 2.133852,-1.956031 1.371762,-0.711284 3.226181,-0.711284 1.879822,0 3.226181,0.711284 1.371762,0.685881 2.108449,1.956031 0.76209,1.244747 0.76209,2.921345 v 7.8749302 q 0,1.676598 -0.76209,2.946748 -0.736687,1.244747 -2.108449,1.956031 -1.346359,0.685881 -3.226181,0.685881 z m 0,-3.30239 q 1.193941,0 1.854419,-0.609672 0.685881,-0.609672 0.685881,-1.676598 V 8.0625348 q 0,-1.066926 -0.685881,-1.676598 -0.660478,-0.609672 -1.854419,-0.609672 -1.193941,0 -1.879822,0.609672 -0.660478,0.609672 -0.660478,1.676598 v 7.8749302 q 0,1.066926 0.685881,1.676598 0.685881,0.609672 1.854419,0.609672 z m 0,-4.470928 q -0.787493,0 -1.295553,-0.50806 -0.482657,-0.50806 -0.482657,-1.320956 0,-0.812896 0.482657,-1.295553 0.50806,-0.482657 1.295553,-0.482657 0.812896,0 1.295553,0.482657 0.482657,0.482657 0.482657,1.295553 0,0.812896 -0.482657,1.320956 -0.482657,0.50806 -1.295553,0.50806 z"
       style="font-weight:800;font-family:'JetBrains Mono';-inkscape-font-specification:'JetBrains Mono, Ultra-Bold';stroke-linecap:round;stroke-linejoin:round;fill:#ffa200;fill-opacity:1;stroke-width:0.6;stroke-dasharray:none"
       id="path269" />
    <path
       d="m 38.439641,21.526125 q -1.854419,0 -3.226181,-0.685881 -1.371762,-0.711284 -2.133852,-1.956031 -0.736687,-1.27015 -0.736687,-2.946748 V 8.0625348 q 0,-1.676598 0.736687,-2.921345 0.76209,-1.27015 2.133852,-1.956031 1.371762,-0.711284 3.226181,-0.711284 1.879822,0 3.226181,0.711284 1.371762,0.685881 2.108449,1.956031 0.76209,1.244747 0.76209,2.921345 v 7.8749302 q 0,1.676598 -0.76209,2.946748 -0.736687,1.244747 -2.108449,1.956031 -1.346359,0.685881 -3.226181,0.685881 z m 0,-3.30239 q 1.193941,0 1.854419,-0.609672 0.685881,-0.609672 0.685881,-1.676598 V 8.0625348 q 0,-1.066926 -0.685881,-1.676598 -0.660478,-0.609672 -1.854419,-0.609672 -1.193941,0 -1.879822,0.609672 -0.660478,0.609672 -0.660478,1.676598 v 7.8749302 q 0,1.066926 0.685881,1.676598 0.685881,0.609672 1.854419,0.609672 z m 0,-4.470928 q -0.787493,0 -1.295553,-0.50806 -0.482657,-0.50806 -0.482657,-1.320956 0,-0.812896 0.482657,-1.295553 0.50806,-0.482657 1.295553,-0.482657 0.812896,0 1.295553,0.482657 0.482657,0.482657 0.482657,1.295553 0,0.812896 -0.482657,1.320956 -0.482657,0.50806 -1.295553,0.50806 z"
       style="font-weight:800;font-family:'JetBrains Mono';-inkscape-font-specification:'JetBrains Mono, Ultra-Bold';stroke-linecap:round;stroke-linejoin:round;fill:#ffa200;fill-opacity:1;stroke-width:0.6;stroke-dasharray:none"
       id="path271" />
    <path
       d="m 50.124983,11.110895 q -1.600389,0 -2.718121,-0.914508 -1.092329,-0.9145082 -1.092329,-2.5148972 v -1.651195 q 0,-1.600389 1.092329,-2.514897 1.117732,-0.914508 2.718121,-0.914508 1.600389,0 2.692718,0.914508 1.117732,0.914508 1.117732,2.514897 v 1.651195 q 0,1.600389 -1.117732,2.5148972 -1.092329,0.914508 -2.692718,0.914508 z m -4.445525,10.1612 13.412784,-18.5441902 h 2.591106 L 48.270564,21.272095 Z M 50.124983,9.0024458 q 1.295553,0 1.295553,-1.320956 v -1.651195 q 0,-1.320956 -1.295553,-1.320956 -1.295553,0 -1.295553,1.320956 v 1.651195 q 0,1.320956 1.295553,1.320956 z m 7.11284,12.3966642 q -1.651195,0 -2.743524,-0.939911 -1.066926,-0.939911 -1.066926,-2.489494 V 16.31851 q 0,-1.549583 1.066926,-2.489494 1.092329,-0.939911 2.743524,-0.939911 1.651195,0 2.718121,0.939911 1.092329,0.939911 1.092329,2.489494 v 1.651195 q 0,1.549583 -1.092329,2.489494 -1.066926,0.939911 -2.718121,0.939911 z m 0,-2.133852 q 1.295553,0 1.295553,-1.295553 V 16.31851 q 0,-1.320956 -1.295553,-1.320956 -1.295553,0 -1.295553,1.320956 v 1.651195 q 0,1.295553 1.295553,1.295553 z"
       style="font-weight:800;font-family:'JetBrains Mono';-inkscape-font-specification:'JetBrains Mono, Ultra-Bold';stroke-linecap:round;stroke-linejoin:round;fill:url(#linearGradient880);fill-opacity:1;stroke-width:0.6;stroke-dasharray:none"
       id="path273" />
  </g>
</svg>
